<svg id="Group_6" data-name="Group 6" xmlns="http://www.w3.org/2000/svg" xmlns:xlink="http://www.w3.org/1999/xlink" width="163.951" height="39.624" viewBox="0 0 163.951 39.624">
  <defs>
    <clipPath id="clip-path">
      <rect id="Rectangle_37" data-name="Rectangle 37" width="163.951" height="39.624" fill="none"/>
    </clipPath>
  </defs>
  <g id="Group_5" data-name="Group 5" clip-path="url(#clip-path)">
    <path id="Path_19" data-name="Path 19" d="M1909.847,384.6a4.214,4.214,0,0,1,7.155,2.968,4,4,0,0,1-1.245,2.968,4.174,4.174,0,0,1-7.129-2.968,4.153,4.153,0,0,1,1.219-2.968" transform="translate(-1753.051 -352.128)" fill="#0562ff"/>
    <path id="Path_20" data-name="Path 20" d="M0,17.941a9.787,9.787,0,0,1,3.684-7.656Q7.366,7.1,13.682,7.1a31.019,31.019,0,0,1,12.84,3.157v7.735h-.263q-2.21-2.368-4-4a24.614,24.614,0,0,0-4.5-3.157,10.363,10.363,0,0,0-5.025-1.526,6.918,6.918,0,0,0-4.71,1.579,4.909,4.909,0,0,0-1.816,3.841,5.209,5.209,0,0,0,2.71,4.42A41.128,41.128,0,0,0,17.1,22.94q10.84,4.262,10.84,12.05a9.607,9.607,0,0,1-3.973,8.262,16.131,16.131,0,0,1-9.761,2.894q-5.947,0-13.787-3.578v-8H.737q1.946,2.105,3.078,3.236t3.131,2.789a15.392,15.392,0,0,0,3.92,2.447,10.225,10.225,0,0,0,3.92.789A7.36,7.36,0,0,0,19.681,42.2a5.465,5.465,0,0,0,1.947-4.42,5.933,5.933,0,0,0-2.552-5A29.7,29.7,0,0,0,11.419,29.1Q0,25.256,0,17.941" transform="translate(0 -6.522)" fill="#0562ff"/>
    <path id="Path_21" data-name="Path 21" d="M380.172,172.642a6.944,6.944,0,0,1,3.394-6.315,13.5,13.5,0,0,1,7.236-2.1,16.746,16.746,0,0,1,2.263.158,14.819,14.819,0,0,1,3.42.684v-2.2a8.62,8.62,0,0,0-.947-4.42,2.893,2.893,0,0,0-2.578-1.579c-1.4,0-3.276,1.01-5.894,2.6-3.923,2.389.234-.138-4.789,2.913h-.263v-6.736a39.1,39.1,0,0,1,11.314-2q4.788,0,7.262,2.289a8.016,8.016,0,0,1,2.473,6.183V173.9q0,3.315,1.947,3.315a3.785,3.785,0,0,0,1.368-.316l.105.158a4.653,4.653,0,0,1-1.684,2.6,4.931,4.931,0,0,1-3.1.973,5.133,5.133,0,0,1-3.315-1.052,5.021,5.021,0,0,1-1.737-2.947,9.17,9.17,0,0,1-8,4.1,8.13,8.13,0,0,1-6.209-2.394,8.024,8.024,0,0,1-2.263-5.709m8.367,3a4.678,4.678,0,0,0,3.578,1.526,5.738,5.738,0,0,0,4.368-2.21V166.59a5.747,5.747,0,0,1-.895-.053,16.041,16.041,0,0,0-2.158-.158,7.6,7.6,0,0,0-4.42,1.342,4.617,4.617,0,0,0-1.947,4.078,5.305,5.305,0,0,0,1.473,3.841" transform="translate(-349.183 -141.121)" fill="#0562ff"/>
    <path id="Path_22" data-name="Path 22" d="M1553.171,172.642a6.944,6.944,0,0,1,3.394-6.315,13.5,13.5,0,0,1,7.236-2.1,16.745,16.745,0,0,1,2.263.158,14.819,14.819,0,0,1,3.421.684v-2.2a8.619,8.619,0,0,0-.947-4.42,2.892,2.892,0,0,0-2.578-1.579c-1.4,0-3.276,1.01-5.894,2.6-3.923,2.389.234-.138-4.789,2.913h-.263v-6.736a39.1,39.1,0,0,1,11.314-2q4.788,0,7.262,2.289a8.016,8.016,0,0,1,2.473,6.183V173.9q0,3.315,1.947,3.315a3.785,3.785,0,0,0,1.368-.316l.105.158a4.652,4.652,0,0,1-1.684,2.6,4.931,4.931,0,0,1-3.1.973,5.134,5.134,0,0,1-3.315-1.052,5.022,5.022,0,0,1-1.736-2.947,9.17,9.17,0,0,1-8,4.1,8.13,8.13,0,0,1-6.209-2.394,8.024,8.024,0,0,1-2.263-5.709m8.367,3a4.678,4.678,0,0,0,3.578,1.526,5.739,5.739,0,0,0,4.368-2.21V166.59a5.746,5.746,0,0,1-.895-.053,16.041,16.041,0,0,0-2.158-.158,7.6,7.6,0,0,0-4.42,1.342,4.617,4.617,0,0,0-1.947,4.078,5.305,5.305,0,0,0,1.473,3.841" transform="translate(-1426.568 -141.121)" fill="#061c2b"/>
    <path id="Path_23" data-name="Path 23" d="M695.869,162.683v.158a6.366,6.366,0,0,0-.5,1.947q-.079.947-.079,1.21a13.035,13.035,0,0,0,.684,3.736l5.578,13.155,5.21-13.1a6.759,6.759,0,0,0,.553-2.21q.026-.894.026-1.052a9.8,9.8,0,0,0-.21-2.236,8.308,8.308,0,0,0-.474-1.447v-.158h6v.21a39.65,39.65,0,0,0-3.263,6.157l-8.051,20h-4.262l-8.156-19a33.925,33.925,0,0,0-2.157-4.289,22.573,22.573,0,0,0-1.947-2.921v-.158Z" transform="translate(-628.997 -149.422)" fill="#0562ff"/>
    <path id="Path_24" data-name="Path 24" d="M1051.6,4.209a4.012,4.012,0,0,1,1.263-2.973,4.384,4.384,0,0,1,6.1,0,4.012,4.012,0,0,1,1.263,2.973,4.1,4.1,0,0,1-1.263,3,4.273,4.273,0,0,1-3.052,1.263,4.184,4.184,0,0,1-3.026-1.263,4.055,4.055,0,0,1-1.289-3m.052,9.261v-.21h7.788V31.677a38.715,38.715,0,0,0,1.263,7.735v.21h-9.051v-.21q0-.052.368-1.5t.631-3.1a20.038,20.038,0,0,0,.263-3.131V21.206a38.708,38.708,0,0,0-1.263-7.735" transform="translate(-965.883 0.001)" fill="#0562ff"/>
    <path id="Path_25" data-name="Path 25" d="M1202.761,185.279a38.708,38.708,0,0,0,1.263-7.735V167.072a38.708,38.708,0,0,0-1.263-7.735v-.21h7.841v4.525q3.262-4.841,8.472-4.841a8.84,8.84,0,0,1,6.157,2.236q2.473,2.237,2.473,6.657v9.84a38.721,38.721,0,0,0,1.263,7.735v.21h-9.051v-.21q0-.052.368-1.5t.632-3.1a20.054,20.054,0,0,0,.263-3.131v-9a5.467,5.467,0,0,0-1.447-4.157,5.244,5.244,0,0,0-3.6-1.421,8.554,8.554,0,0,0-5.525,2.315v12.261a19.758,19.758,0,0,0,.263,3.157q.263,1.632.631,3.1l.316,1.473v.21h-9.051Z" transform="translate(-1104.721 -145.865)" fill="#061c2b"/>
  </g>
</svg>
