<svg id="Group_2" data-name="Group 2" xmlns="http://www.w3.org/2000/svg" xmlns:xlink="http://www.w3.org/1999/xlink" width="125.596" height="30.355" viewBox="0 0 125.596 30.355">
  <defs>
    <clipPath id="clip-path">
      <rect id="Rectangle_3" data-name="Rectangle 3" width="125.596" height="30.355" fill="#fff"/>
    </clipPath>
  </defs>
  <g id="Group_1" data-name="Group 1" clip-path="url(#clip-path)">
    <path id="Path_1" data-name="Path 1" d="M1909.562,384.312a3.228,3.228,0,0,1,5.481,2.274,3.063,3.063,0,0,1-.954,2.274,3.2,3.2,0,0,1-5.461-2.274,3.181,3.181,0,0,1,.934-2.274" transform="translate(-1789.447 -359.439)" fill="#5d99ff"/>
    <path id="Path_2" data-name="Path 2" d="M0,15.405A7.5,7.5,0,0,1,2.822,9.54,11.317,11.317,0,0,1,10.481,7.1,23.762,23.762,0,0,1,20.317,9.52v5.926h-.2q-1.693-1.814-3.064-3.064a18.856,18.856,0,0,0-3.447-2.419,7.939,7.939,0,0,0-3.85-1.169A5.3,5.3,0,0,0,6.148,10a3.76,3.76,0,0,0-1.391,2.943,3.99,3.99,0,0,0,2.076,3.386,31.507,31.507,0,0,0,6.268,2.9q8.3,3.265,8.3,9.231a7.36,7.36,0,0,1-3.043,6.329,12.357,12.357,0,0,1-7.478,2.217A26.053,26.053,0,0,1,.323,34.271V28.144H.564q1.491,1.613,2.358,2.479t2.4,2.136a11.792,11.792,0,0,0,3,1.875,7.833,7.833,0,0,0,3,.6,5.638,5.638,0,0,0,3.749-1.25A4.187,4.187,0,0,0,16.568,30.6a4.545,4.545,0,0,0-1.955-3.83,22.755,22.755,0,0,0-5.865-2.822Q0,21.009,0,15.405" transform="translate(0 -6.658)" fill="#fff"/>
    <path id="Path_3" data-name="Path 3" d="M380.172,168.2a5.319,5.319,0,0,1,2.6-4.837,10.342,10.342,0,0,1,5.543-1.612,12.828,12.828,0,0,1,1.733.121,11.353,11.353,0,0,1,2.62.524v-1.688a6.6,6.6,0,0,0-.726-3.386,2.216,2.216,0,0,0-1.975-1.209c-1.075,0-2.509.774-4.515,2-3.005,1.83.18-.106-3.668,2.232h-.2v-5.16a29.954,29.954,0,0,1,8.667-1.532,7.918,7.918,0,0,1,5.563,1.754,6.141,6.141,0,0,1,1.895,4.737v9.03q0,2.54,1.492,2.54a2.9,2.9,0,0,0,1.048-.242l.081.121a3.564,3.564,0,0,1-1.29,2,3.777,3.777,0,0,1-2.378.746,3.933,3.933,0,0,1-2.54-.806,3.846,3.846,0,0,1-1.33-2.257,7.025,7.025,0,0,1-6.127,3.144,6.228,6.228,0,0,1-4.757-1.834,6.147,6.147,0,0,1-1.733-4.374m6.409,2.3a3.584,3.584,0,0,0,2.741,1.169,4.4,4.4,0,0,0,3.346-1.693v-6.41a4.4,4.4,0,0,1-.685-.04,12.288,12.288,0,0,0-1.653-.121,5.823,5.823,0,0,0-3.386,1.028,3.537,3.537,0,0,0-1.492,3.124,4.064,4.064,0,0,0,1.129,2.943" transform="translate(-356.433 -144.051)" fill="#fff"/>
    <path id="Path_4" data-name="Path 4" d="M1553.171,168.2a5.32,5.32,0,0,1,2.6-4.837,10.342,10.342,0,0,1,5.543-1.612,12.829,12.829,0,0,1,1.733.121,11.352,11.352,0,0,1,2.62.524v-1.688a6.6,6.6,0,0,0-.726-3.386,2.216,2.216,0,0,0-1.975-1.209c-1.075,0-2.509.774-4.515,2-3.005,1.83.18-.106-3.668,2.232h-.2v-5.16a29.954,29.954,0,0,1,8.667-1.532,7.917,7.917,0,0,1,5.563,1.754,6.141,6.141,0,0,1,1.895,4.737v9.03q0,2.54,1.491,2.54a2.9,2.9,0,0,0,1.048-.242l.081.121a3.565,3.565,0,0,1-1.29,2,3.777,3.777,0,0,1-2.378.746,3.933,3.933,0,0,1-2.54-.806,3.846,3.846,0,0,1-1.33-2.257,7.025,7.025,0,0,1-6.127,3.144,6.228,6.228,0,0,1-4.757-1.834,6.147,6.147,0,0,1-1.734-4.374m6.41,2.3a3.583,3.583,0,0,0,2.741,1.169,4.4,4.4,0,0,0,3.346-1.693v-6.41a4.4,4.4,0,0,1-.685-.04,12.288,12.288,0,0,0-1.653-.121,5.823,5.823,0,0,0-3.386,1.028,3.537,3.537,0,0,0-1.492,3.124,4.064,4.064,0,0,0,1.129,2.943" transform="translate(-1456.186 -144.051)" fill="#fff"/>
    <path id="Path_5" data-name="Path 5" d="M693.283,162.683v.121a4.877,4.877,0,0,0-.383,1.492q-.061.726-.06.927a9.988,9.988,0,0,0,.524,2.862l4.273,10.078,3.991-10.038a5.178,5.178,0,0,0,.423-1.693q.02-.685.02-.806a7.5,7.5,0,0,0-.161-1.713,6.364,6.364,0,0,0-.363-1.109v-.121h4.6v.161a30.378,30.378,0,0,0-2.5,4.716l-6.168,15.318h-3.265l-6.248-14.552a25.988,25.988,0,0,0-1.653-3.285,17.29,17.29,0,0,0-1.492-2.237v-.121Z" transform="translate(-642.056 -152.525)" fill="#fff"/>
    <path id="Path_6" data-name="Path 6" d="M1051.6,3.224a3.074,3.074,0,0,1,.968-2.278,3.359,3.359,0,0,1,4.676,0,3.074,3.074,0,0,1,.968,2.278,3.139,3.139,0,0,1-.968,2.3,3.274,3.274,0,0,1-2.338.967,3.205,3.205,0,0,1-2.318-.967,3.106,3.106,0,0,1-.988-2.3m.04,7.095v-.161h5.966V24.267a29.656,29.656,0,0,0,.968,5.926v.161h-6.934v-.161q0-.04.282-1.149t.484-2.378a15.341,15.341,0,0,0,.2-2.4V16.245a29.656,29.656,0,0,0-.968-5.926" transform="translate(-985.937 0.001)" fill="#fff"/>
    <path id="Path_7" data-name="Path 7" d="M1202.761,179.087a29.656,29.656,0,0,0,.968-5.926v-8.022a29.657,29.657,0,0,0-.968-5.926v-.161h6.006v3.467a7.542,7.542,0,0,1,6.49-3.709,6.772,6.772,0,0,1,4.716,1.713,6.529,6.529,0,0,1,1.895,5.1v7.538a29.662,29.662,0,0,0,.967,5.926v.161H1215.9v-.161q0-.04.282-1.149t.484-2.378a15.342,15.342,0,0,0,.2-2.4v-6.893a4.189,4.189,0,0,0-1.109-3.185,4.017,4.017,0,0,0-2.761-1.088,6.553,6.553,0,0,0-4.233,1.774v9.393a15.134,15.134,0,0,0,.2,2.419q.2,1.25.484,2.378l.242,1.129v.161h-6.934Z" transform="translate(-1127.656 -148.893)" fill="#fff"/>
  </g>
</svg>
